<svg xmlns="http://www.w3.org/2000/svg" viewBox="0 0 200 200">
  <g fill="none" fill-rule="evenodd">
    <path d="M170 60c-10-12-28-20-44-16-10 2-20 8-26 16-8 12-6 28 4 38 12 12 30 12 44 2 12-8 22-24 22-40 0-2 0-6-0-0z" fill="#f8f8f8" opacity="0.96"/>
    <g transform="translate(30,30)">
      <path d="M40 10c6 6 16 8 18 18 2 10-6 20-14 24-10 6-22 4-28-4-8-12 8-36 24-38z" fill="#dfeee0"/>
      <path d="M10 60c8-6 22-6 32-2 8 4 14 12 12 20-2 10-12 18-22 12-12-6-24-22-22-30z" fill="#cde7cf"/>
    </g>
  </g>
</svg>
